<svg width="175" height="152" viewBox="0 0 175 152" fill="none" xmlns="http://www.w3.org/2000/svg">
    <path d="M87.5 137L81.0053 140.751L87.5 151.997L93.9947 140.751L87.5 137ZM13 8L13 0.5L0.0077167 0.499999L6.50528 11.7508L13 8ZM162 8.00001L168.495 11.7508L174.992 0.500014L162 0.500013L162 8.00001ZM93.9947 133.249L19.4947 4.24918L6.50528 11.7508L81.0053 140.751L93.9947 133.249ZM13 15.5L162 15.5L162 0.500013L13 0.5L13 15.5ZM155.505 4.24919L81.0053 133.249L93.9947 140.751L168.495 11.7508L155.505 4.24919ZM80 8.00001V137H95V8.00001H80Z" fill="black" />
</svg>
    